/* XPM */
static char *_283e16383c942bcd1976770b78f57f26OACJhYjSl6HcE05[] = {
/* columns rows colors chars-per-pixel */
"48 48 2 1 ",
"  c None",
". c red",
/* pixels */
"         .                            .         ",
"        ...                          ...        ",
"       .....                        .....       ",
"      .......                      .......      ",
"     .........                    .........     ",
"    ...........                  ...........    ",
"   .............                .............   ",
"  ...............              ...............  ",
" .................            ................. ",
"...................          ...................",
" ...................        ................... ",
"  ...................      ...................  ",
"   ...................    ...................   ",
"    ...................  ...................    ",
"     ......................................     ",
"      ....................................      ",
"       ..................................       ",
"        ................................        ",
"         ..............................         ",
"          ............................          ",
"           ..........................           ",
"            ........................            ",
"             ......................             ",
"              ....................              ",
"              ....................              ",
"             ......................             ",
"            ........................            ",
"           ..........................           ",
"          ............................          ",
"         ..............................         ",
"        ................................        ",
"       ..................................       ",
"      ....................................      ",
"     ......................................     ",
"    ...................  ...................    ",
"   ...................    ...................   ",
"  ...................      ...................  ",
" ...................        ................... ",
"...................          ...................",
" .................            ................. ",
"  ...............              ...............  ",
"   .............                .............   ",
"    ...........                  ...........    ",
"     .........                    .........     ",
"      .......                      .......      ",
"       .....                        .....       ",
"        ...                          ...        ",
"         .                            .         "
};
