/* XPM */
static char *_e4b57b91a21440381e3452dd94e606eQVjWqKWASfdCX28i[] = {
/* columns rows colors chars-per-pixel */
"48 48 200 2 ",
"   c None",
".  c #190D0C",
"X  c #0D0812",
"o  c #140E1A",
"O  c #150D13",
"+  c #1B1314",
"@  c #16111D",
"#  c #1B141D",
"$  c #1E191D",
"%  c #241B1D",
"&  c #241614",
"*  c #331C1B",
"=  c #24160C",
"-  c #342015",
";  c #2B221B",
":  c #161224",
">  c #1C1623",
",  c #1E1925",
"<  c #1C172A",
"1  c #1D192B",
"2  c #1E1B33",
"3  c #211723",
"4  c #231A23",
"5  c #221C2C",
"6  c #291F2B",
"7  c #221728",
"8  c #231E32",
"9  c #291F31",
"0  c #26212D",
"q  c #2B222C",
"w  c #2B2225",
"e  c #342323",
"r  c #3A2726",
"t  c #262134",
"y  c #2B2334",
"u  c #2B2539",
"i  c #2E293C",
"p  c #27223B",
"a  c #322937",
"s  c #332A3C",
"d  c #3A2A30",
"f  c #39313D",
"g  c #462C1D",
"h  c #4B3121",
"j  c #40333D",
"k  c #403236",
"l  c #4D352F",
"z  c #2E2A43",
"x  c #332D43",
"c  c #382F46",
"v  c #352F4A",
"b  c #363146",
"n  c #3A3344",
"m  c #36314A",
"M  c #3A344B",
"N  c #3E394E",
"B  c #3C3946",
"V  c #2B3056",
"C  c #3C3652",
"Z  c #3E3953",
"A  c #413A4B",
"S  c #433847",
"D  c #423A55",
"F  c #443D5B",
"G  c #453F62",
"H  c #3E425C",
"J  c #46415C",
"K  c #49435E",
"L  c #444054",
"P  c #5F4D51",
"I  c #5C4646",
"U  c #795648",
"Y  c #675455",
"T  c #464262",
"R  c #4A4463",
"E  c #4D4964",
"W  c #4A486A",
"Q  c #524C6E",
"!  c #514B66",
"~  c #534E74",
"^  c #45537F",
"/  c #565174",
"(  c #5A557A",
")  c #5D597C",
"_  c #595376",
"`  c #4B4B72",
"'  c #625B7C",
"]  c #786C74",
"[  c #855D50",
"{  c #8F6959",
"}  c #887477",
"|  c #8F7369",
" . c #A47E71",
".. c #BF8E79",
"X. c #A88B7E",
"o. c #615B81",
"O. c #5E658F",
"+. c #4F6195",
"@. c #556799",
"#. c #67628A",
"$. c #6C6B8A",
"%. c #7E7685",
"&. c #6C6994",
"*. c #6E6B98",
"=. c #706E94",
"-. c #7C7A99",
";. c #6976A1",
":. c #817BA6",
">. c #7A8097",
",. c #728CCE",
"<. c #7993D3",
"1. c #8F818A",
"2. c #9C8C94",
"3. c #958B9A",
"4. c #8A8A9D",
"5. c #BB9889",
"6. c #B1918A",
"7. c #8A8CAB",
"8. c #8A88B6",
"9. c #8786B4",
"0. c #908DB9",
"q. c #8F90B0",
"w. c #9B9FBA",
"e. c #9799B8",
"r. c #9796AA",
"t. c #A39CA8",
"y. c #9EA1BD",
"u. c #BFABAC",
"i. c #A5A8BF",
"p. c #BDB1BA",
"a. c #C69988",
"s. c #CA9D8B",
"d. c #C59788",
"f. c #CEA18E",
"g. c #C9A59C",
"h. c #C8A496",
"j. c #D3A593",
"k. c #D7AB97",
"l. c #D4AC99",
"z. c #DCB29D",
"x. c #D7B5A8",
"c. c #C4A9A1",
"v. c #E9BAA4",
"b. c #F3C6AF",
"n. c #F8CCB7",
"m. c #F6CBB7",
"M. c #FAD1BA",
"N. c #E4C7BF",
"B. c #8590C2",
"V. c #9B98C4",
"C. c #8399D6",
"Z. c #A9AEC6",
"A. c #A6A8CB",
"S. c #AEB2C9",
"D. c #B8BACE",
"F. c #B3B7CC",
"G. c #A7A8D4",
"H. c #B6BDDC",
"J. c #8CA4E0",
"K. c #A7AEE5",
"L. c #ACB2E7",
"P. c #BABBEB",
"I. c #B8BEF3",
"U. c #BDC2DC",
"Y. c #BBC2EE",
"T. c #BBC2F3",
"R. c #C1C6DF",
"E. c #EACDC6",
"W. c #EDD0C8",
"Q. c #FCD5C2",
"!. c #FDD9C4",
"~. c #F6D6CB",
"^. c #F8D7CA",
"/. c #FDDBCC",
"(. c #F3D5CA",
"). c #FDDED3",
"_. c #FDDFD9",
"`. c #F5DCD9",
"'. c #FEE1D6",
"]. c #FFE3D9",
"[. c #C1C6E8",
"{. c #D0CFE0",
"}. c #DAD3E0",
"|. c #C2CBF3",
" X c #CDD4F5",
".X c #D1D9F8",
"XX c #D6D9F1",
"oX c #DFE3F6",
"OX c #DEE5FD",
"+X c #DEE9FF",
"@X c #E7E2ED",
"#X c #E9E2F3",
"$X c #E1E6FE",
"%X c #E5EBFE",
"&X c #E9EBFF",
"*X c #E7F0FF",
"=X c #FCF3FE",
"-X c #FBF2FE",
";X c #F7F1FC",
":X c #FBE6E5",
/* pixels */
"                                                                                                ",
"                  > 5 t u u i x a                                                               ",
"              4 5 5 8 t u s x x x b f                                                           ",
"          + , 7 5 8 t u i x x m M M m M X                                                       ",
"        # > < 7 5 9 y u i x x m M M M M b @                                                     ",
"      > > , , 5 5 t y i x x b m M M M t m M :                                                   ",
"    # , , , 5 5 8 u i x b M N M 8 N M C C m N                                                   ",
"    > , , , 5 5 y s n N N a j y y 5 D J T R p M                                                 ",
"  # > , 1 5 7 y a n 3.-X=X=Xr.L 1 t m Q ) ( ( J                                                 ",
"  > , , 5 5 y a 1.=X-Xy A D D J K E Q ) q.G.&.o.!                                               ",
"  , , > 7 y f =X-Xs N M M M C F E _ V.#.*.P.P.&./                                               ",
"  , , , t s -X;XN n x x x m Z F _ 7.0.A.W P.=.G.( M                                             ",
"X > : 7 y @Xi.M x x x x M m D -.R / ( ) ' 0.#.#.~ 8                                             ",
"X > > 9 j 4.x x x x m v M C Q F J 8 R ~ Q _ _ ~ R x x                                           ",
"O 7 5 y #XM x x m M C C J M M Z D D : y p z W R R b Z                                           ",
"o 5 9 3.m M M M Z D D =.C m # 5 y > B $ 4 z J T D b Z t                                         ",
"  5 u #XM D F F F ) #.F C M s U [ U * q w r F Z Z x D D                                         ",
"  y x z R T T R :.G D C m m c s j...n.v.a.M.A M b 8 D F t                                       ",
"  y M D *.8.8.W 5 i A n n M x M y f.M.Q.^.- 5 M t 7 F K K                                       ",
"  5 J C V.~ E F s | l 4 q q 6 y y r x.h z.^.P N : > F T J C                                     ",
"  # &./ / ` G 7 y q  .k.d.s.h.5.5.^./.)./.6.x.B : o N T F D x                                   ",
"  # C 9.M R Z x d = q e M././.).).'.'.'.'.).N.y @ > < D F F Z                                   ",
"    s Q E M 5 u x r b.!./.~.).].].].].'.].'.I 5 > # > y F F x M                                 ",
"      t D M x 5 , 5 * ^.). .'.].'.'.].].].'.l E.* % 0 8 K K D i b                               ",
"      . , s s x s y 3 4 !.!.).'.'.].].'.].h.g./.).).@X[.$Xz J M   y                             ",
"        O > 1 a x s y 3 % Y Q././.).'.).X.x.'.'.'.'.p.$X+XOX8 F a   %                           ",
"            + , , s n , @ + r g s.f.k.l.l.).'.].5.'.] &X$X$X$XR M e                             ",
"              . $ > > , > > n d.f.j.j.l.m.'.~.].'.].Y %X$X&X$Xz D s                             ",
"                + $ > > 7 0 J d.{ U { 5.x.].].].].2.%X%X%X&X$XOXD x q   +                       ",
"                  # > 5 R.y.t #XQ./.).].`.%.%.%X%X%X%X.X$X$X+X$XE M x                           ",
"                  + , 0 OXOXXX$Xt.} }.#X%X^ O.%X%X%X+X>.$X%X$XOXH C 1 q                         ",
"                    4 t OX$Xw.i.%X%X%X%X$XZ.S.-.S.$X$X%X%X&XOX$XS.Z i y                         ",
"                    4 Z OX%X%X%X7.OXi.7.oX%X$X=.%X%X%X%X%X7.Y.$X$XD x % &                       ",
"                    ; s OX%X%X*X|.%X%X%X%X%X%XoX%X%X%X%X%X$XI.OXOX$.M   6                       ",
"                      u  X%X%X%Xy..X%X&X%X%X%X%X%X%X%X%X%X%XT.$X$XOXb q y                       ",
"                      y L.$X%XZ.$XT.%X&X&X%XH.B.$X%X%X%X%X%X9.$X$XOXp i                         ",
"                      y L.$X%X%XY.L.%X%X&X&X%X$Xe.%X%X%X%X%XU.OXOX.Xm i   @                     ",
"                      y K.OX%X%XXXI.$X%X&X&X&X%X%X%X%X&X%X%X$X+.<.,.m i   +                     ",
"                      6 A.OX%X%X$X8.|.OX&X&X&X&X%X%X%X&X%X%X$XB.F E.b i o +                     ",
"                      5 G.$X%X%X%X$X9. X&X&X&X%X&XD.%X&X%X%X%Xc.).).n s                         ",
"                      5 G.OXOX%X%X%X&X|.%X%X&X%X%XU.%X%X&X%X%Xu.).).k x                         ",
"                      4 ~ K.OX$X$X$X%XT.%X&X%X%XJ.F.%X&X&X&X%X| _.'.'.n                         ",
"                      % 2 < V @.C.<.C.Y.%X&X&X%X%X%X%X%X&X&X&X] _.).).S                         ",
"                      $ , t W F g./.:X|.%X&X&X%X%X%X$X&X&X&X&X{.).'.).e                         ",
"                      3 # 4 6.n./.).].XX%X&X&X&X%X%Xw.&X&X&X&X&X].].'.`.                        ",
"                      $ # 7 r n./.).].D.%X&X&X&X%X%X$X&X%X%X%X%Xg.].].).5.                      ",
"                      % # 4 q b./.'.].2.%X&X&X&X%X%X%X%X%X%X%X%X3.].].'.).                      ",
"                        $ + 6 d.!.'.].`.%X&X&X&X&X;.&.$X%X%X%X%X&XW.].].].W.                    "
};
