/* XPM */
static char *a6a8b6f701c54b8fd195e73cbc720c71azou6YeGuNrqIaBQ[] = {
/* columns rows colors chars-per-pixel */
"48 48 168 2 ",
"   c None",
".  c #433521",
"X  c #473822",
"o  c #4B3C24",
"O  c #4F3F28",
"+  c #513F27",
"@  c #554227",
"#  c #55442A",
"$  c #58462B",
"%  c #5E4A2C",
"&  c #5F4D33",
"*  c #624D2D",
"=  c #64502F",
"-  c #624F32",
";  c #625034",
":  c #6C5533",
">  c #6E5936",
",  c #675538",
"<  c #685639",
"1  c #6B593B",
"2  c #715732",
"3  c #735B35",
"4  c #7A5E36",
"5  c #745D3A",
"6  c #7D6037",
"7  c #7C623C",
"8  c #6F5D42",
"9  c #645C4D",
"0  c #645E53",
"q  c #685F50",
"w  c #7D6440",
"e  c #6B6253",
"r  c #676866",
"t  c #686967",
"y  c #696B6B",
"u  c #6F706D",
"i  c #6B6F71",
"p  c #6D7274",
"a  c #727476",
"s  c #757779",
"d  c #767B7D",
"f  c #797C7D",
"g  c #84663A",
"h  c #86683D",
"j  c #846A44",
"k  c #8B6F44",
"l  c #8A6F48",
"z  c #8C724A",
"x  c #927345",
"c  c #937548",
"v  c #987A4E",
"b  c #847760",
"n  c #877A63",
"m  c #897C64",
"M  c #8F8067",
"N  c #8C826E",
"B  c #7C7F80",
"V  c #7C8283",
"C  c #808587",
"Z  c #8A8A84",
"A  c #828788",
"S  c #85898B",
"D  c #898C8E",
"F  c #8C8F91",
"G  c #8E9395",
"H  c #919496",
"J  c #959698",
"K  c #95989A",
"L  c #9A9C9E",
"P  c #9F9FA0",
"I  c #9EA1A2",
"U  c #A1A3A5",
"Y  c #A2A7A8",
"T  c #A4ACAD",
"R  c #A9ABAD",
"E  c #A6AEB0",
"W  c #ADAEB0",
"Q  c #ABB2B4",
"!  c #ADB6B8",
"~  c #AEB8BA",
"^  c #B2B4B6",
"/  c #B1B7B9",
"(  c #B4BABC",
")  c #BBBCBE",
"_  c #B6BFC1",
"`  c #BABFC1",
"'  c #BCC3C5",
"]  c #BFC8CA",
"[  c #C2C5C7",
"{  c #C3C7C9",
"}  c #C4CACC",
"|  c #CACCCE",
" . c #C7CED0",
".. c #CCCFD0",
"X. c #C5D1D3",
"o. c #CCD3D4",
"O. c #CED7D9",
"+. c #CFD8DA",
"@. c #D2D4D6",
"#. c #D5D7D9",
"$. c #D5DBDC",
"%. c #DADCDD",
"&. c #DCDFE0",
"*. c #DCE1E3",
"=. c #E1E6E7",
"-. c #E3E6E7",
";. c #E1E4E5",
":. c #E2E4E5",
">. c #E2E7E8",
",. c #E5E7E8",
"<. c #E7E7E8",
"1. c #E5E7E8",
"2. c #E5E8E9",
"3. c #E4E8E9",
"4. c #E6E8E9",
"5. c #E6E9EA",
"6. c #E7E9EB",
"7. c #E5E9EA",
"8. c #E7EBED",
"9. c #E6E9EA",
"0. c #E8E9EA",
"q. c #E9E9EA",
"w. c #E8EAEB",
"e. c #E9EBEC",
"r. c #EBEBED",
"t. c #EAECED",
"y. c #EBEDEE",
"u. c #EBEEEF",
"i. c #ECECED",
"p. c #ECEDEE",
"a. c #EDEDEE",
"s. c #EDEEEF",
"d. c #EEEEEF",
"f. c #EBECED",
"g. c #EAEEF0",
"h. c #EFEFF0",
"j. c #EEEFF0",
"k. c #EFEFF0",
"l. c #EEF0F1",
"z. c #EFF0F2",
"x. c #EEF1F3",
"c. c #EFF0F1",
"v. c #F0F0F1",
"b. c #F1F1F2",
"n. c #F2F2F3",
"m. c #F3F3F5",
"M. c #F0F2F4",
"N. c #F4F4F5",
"B. c #F5F5F6",
"V. c #F5F5F7",
"C. c #F5F6F7",
"Z. c #F6F6F7",
"A. c #F4F4F5",
"S. c #F6F6F8",
"D. c #F7F7F8",
"F. c #F7F7F9",
"G. c #F6F7F8",
"H. c #F7F7F8",
"J. c #F8F7F9",
"K. c #F9F9FA",
"L. c #F9F9FB",
"P. c #F9F8FA",
"I. c #F8F8F9",
"U. c #FAFAFC",
"Y. c #FBFBFC",
"T. c #FBFBFD",
"R. c #FBFAFC",
"E. c #FAFAFB",
/* pixels */
"                                                                                                ",
"                                                                                                ",
"                                                                                                ",
"                                                                                                ",
"                                                                                                ",
"                                                                                                ",
"                                                                                                ",
"                                                            ,.>.;.5.                            ",
"                                                        B.B.n.q.$.%.i.y.                        ",
"                                                    *.5.5.:.#.|  .| | @.$.$.                    ",
"                                                E ' X.o.| | :.e.y.y.q.%.| { } X.                ",
"                                            o.' ! E Q / ' *.B.T.T.T.T.L.h.%.| { } $.            ",
"                                        B.x.;.$.X.' ! E Q ' :.F.T.T.T.T.T.L.h.%.| o.%.y.        ",
"                                    @.@.e.T.T.M.>.O.} ' ! E ! | q.F.T.T.T.T.T.F.;.| { %.x.y.    ",
"                                i.i.q.%.o.*.x.T.T.8.+.X.} _ Q T ! | q.F.T.T.T.F.;. .[ #.y.5.%.  ",
"                            i.i.n.n.i.q.;.$.O.*.x.L.y.$.o.} ' ( Q T ! | &.>.i.:.| | :.B.n...Y G ",
"                        5.i.h.B.n.i.h.n.n.h.;.%.@.#.e.x.;.$.o.} ' ( Q T Q ( ' { @.*.e.%.^ J S V ",
"                    *.;.5.i.n.B.B.n.i.i.x.B.B.n.q.%...#.&.$.$.$.$.%.o.{ ( E Q _ o.} W L J H A V ",
"                n.5.*.;.h.B.B.F.L.F.M.h.5.e.n.i.q.i.;.@.| { } O.$.;.g.5.%.} Q K S F H J F C d a ",
"            T.F.h.5.;.i.n.B.B.B.B.F.L.L.B.M.n.y.5.5.,.*.*.@.} { } X.o.+.#.( D y p V S C d p t 0 ",
"        L.T.L.n.i.e.q.n.B.B.B.B.B.B.B.F.L.T.T.L.B.A.M.x.i.y.q.%.| { ] ~ L V a y p V d p y e < * ",
"    ,.n.L.T.n.5.h.n.i.h.B.B.B.B.B.B.B.B.B.F.F.F.L.T.T.T.T.L.L.B.,.) S V A s s y i p y e 8 : * ; ",
"' #.;.h.L.T.n.5.h.M.h.i.n.B.B.B.B.B.B.B.n.h.n.B.B.L.T.T.T.N.;.} R S p V C B d y r e 1 - # + * : ",
"U R { *.n.F.L.F.B.B.B.M.n.B.B.B.B.B.B.x.h.h.i.n.B.F.F.B.h.} H B S B p B d p t 9 ; % O O @ X * 5 ",
"P L Y ` %.h.M.n.B.L.F.B.B.B.B.B.B.B.n.,.,.i.i.n.B.B.q.| L f s V A d i p y e < @ X . $ : - + * > ",
"P P I Y / [ %.i.n.n.B.B.n.i.n.n.n.n.i.q.q.h.M.L.B.#.Y V s s f V d p r 9 1 - O .     $ % $ O * : ",
"H L L P T Q / [ #.,.n.M.h.q.5.5.q.n.B.B.J.T.B.#.R D B s f f d p r 9 , @ O .             @ X     ",
"N Z G L I Y T Q / ( o.y.n.i.5.;.y.B.L.L.B.#.R D B f f f d p r 9 & @ O .                         ",
"c j b Z H L I Y T T T ( o.;.i.h.i.h.q.o.R D B f f f d p t q - @ X .                             ",
"v h 4 l M Z H L I Y T T T R [ %.*.[ I D V f f f d p y e ; % X .                                 ",
"x g : > 7 z n Z H L I Y U L P R K V d B f f d p t e 8 % X .                                     ",
"v h * % % * 2 l n Z G L P P P L B s s s a p t 9 - % O .                                         ",
"c h * @ @ O # * 2 w m Z H L P L B s a i t e < @ X .                                             ",
"  g * o . .     $ * 4 z M Z H K f i y e 8 % O .                                                 ",
"      X             $ = 7 j b Z u e 8 ; O .                                                     ",
"                        - : 6 z 1 * $ X                                                         ",
"                          % 6 c > % X                                                           ",
"                          * 4 x 3 % X                                                           ",
"                          - 6 x 5 % X                                                           ",
"                          % 4 c 7 % X                                                           ",
"                              k 5 *                                                             ",
"                                                                                                ",
"                                                                                                ",
"                                                                                                ",
"                                                                                                ",
"                                                                                                ",
"                                                                                                ",
"                                                                                                "
};
