/* XPM */
static char *_e9b4bf6a212421bb44e4383ffb67147svY60aobVQZ0jaOa[] = {
/* columns rows colors chars-per-pixel */
"48 48 142 2 ",
"   c None",
".  c #F39500",
"X  c #F49600",
"o  c #F49700",
"O  c #F49800",
"+  c #F49900",
"@  c #F49B00",
"#  c #F49C00",
"$  c #F49D00",
"%  c #F49F00",
"&  c #F4A100",
"*  c #F5A300",
"=  c #F5A400",
"-  c #F5A500",
";  c #F5A600",
":  c #F5A700",
">  c #F6A900",
",  c #F6AA00",
"<  c #F6AB01",
"1  c #F6AC01",
"2  c #F6AD02",
"3  c #F6B004",
"4  c #F6B205",
"5  c #F6B206",
"6  c #F6B306",
"7  c #F6B407",
"8  c #F7B508",
"9  c #F7B70A",
"0  c #F7B80B",
"q  c #F7BA0D",
"w  c #F7BB0D",
"e  c #F7BB0E",
"r  c #F7BD0F",
"t  c #F7BE10",
"y  c #F9BB3C",
"u  c #F9BB3D",
"i  c #F9BC3C",
"p  c #F9BD3C",
"a  c #F9BC3D",
"s  c #F9BD3D",
"d  c #F9BC3E",
"f  c #F9BC3F",
"g  c #F9BD3F",
"h  c #F9BF3F",
"j  c #F7C011",
"k  c #F7C415",
"l  c #F7C515",
"z  c #F7C616",
"x  c #F7C617",
"c  c #F8C819",
"v  c #F8C919",
"b  c #F8CC1C",
"n  c #F8CD1C",
"m  c #F8CE1D",
"M  c #F8CF1E",
"N  c #F8D01F",
"B  c #F8D120",
"V  c #F8D321",
"C  c #F8D322",
"Z  c #F8D422",
"A  c #F8D724",
"S  c #F8D926",
"D  c #F8DB26",
"F  c #F8DC28",
"G  c #F8DD28",
"H  c #F9DE29",
"J  c #F9DF2A",
"K  c #F9DF2C",
"L  c #F9DF2D",
"P  c #F9C23B",
"I  c #F9C33B",
"U  c #F9C43B",
"Y  c #F9C73A",
"T  c #F9C73B",
"R  c #F9C03D",
"E  c #F9C03E",
"W  c #F9C13E",
"Q  c #F9C43C",
"!  c #F9C53C",
"~  c #F9C43D",
"^  c #F9C53D",
"/  c #F9C63C",
"(  c #F9C73C",
")  c #F9C73E",
"_  c #F9C63F",
"`  c #F9C83B",
"'  c #F9CD39",
"]  c #F9CD3B",
"[  c #F9CF3A",
"{  c #F9CE3B",
"}  c #F9CF3B",
"|  c #F9C93C",
" . c #F9CA3C",
".. c #F9CA3D",
"X. c #F9CC3D",
"o. c #F9CF3C",
"O. c #F9CE3D",
"+. c #F9D334",
"@. c #F9D535",
"#. c #F9D734",
"$. c #F9DA31",
"%. c #F9DB31",
"&. c #F9D933",
"*. c #F9DE30",
"=. c #F9D834",
"-. c #F9DE37",
";. c #F9DF37",
":. c #F9D13A",
">. c #F9D13B",
",. c #F9D23A",
"<. c #F9D23B",
"1. c #F9D33B",
"2. c #F9D739",
"3. c #F9D43A",
"4. c #F9D53B",
"5. c #F9D73A",
"6. c #F9D938",
"7. c #F9D939",
"8. c #F9DA39",
"9. c #F9DB39",
"0. c #F9D93A",
"q. c #F9DC39",
"w. c #F9DD39",
"e. c #F9DE38",
"r. c #F9DF38",
"t. c #F9DE39",
"y. c #F9E037",
"u. c #F9E237",
"i. c #F9E337",
"p. c #F9E536",
"a. c #F9E437",
"s. c #F9E537",
"d. c #F9E637",
"f. c #F9E737",
"g. c #F9E837",
"h. c #F9E038",
"j. c #F9E338",
"k. c #F9BD40",
"l. c #F9BC41",
"z. c #F9BD41",
"x. c #F9BF40",
"c. c #F9BE41",
/* pixels */
"                                                                                                ",
"                                                                                                ",
"                                                                                                ",
"                                              f.      f.                                        ",
"                                f.      y.    y.      h.    f.                                  ",
"                                f.y.    -.    e.e.    e.    y.      f.                          ",
"                          f.      -.    9.9.  4.4.  9.9.    e.    f.                            ",
"                            y.    9.4.  ,.,.  o.]   ,.,.  4.9.    y.      f.                    ",
"                    f.      e.9.    ] o.` U ) ) )   )  .  ] ,.  9.9.    y.                      ",
"                      y.e.    ,.]   ) W h h h h h l.h h W )   o.,.    e.h.                      ",
"              f.        9.4.   .) l.y I ] +.%.%.%.%.+.] I h l.)  .  4.9.      f.                ",
"                y.h.      ] ) l.y U =.L F F S S S S F F L #.U y h ) ] ,.    y.                  ",
"                  e.9.,.  ) h W #.L F A C N n n n n N C A F L #.W h )     9.e.                  ",
"          f.        4.] ) l.U %.F A C n c z z z z z z c n C A F %.I l.) ] 4.      f.            ",
"            f.y.9.    ) h I *.F Z n c z j r e e e e r j z c n Z F *.U h )     e.y.              ",
"                9.,. .h W %.F C n z j e 9 9 6 6 6 6 9 9 e j z n C F %.W l. .,.9.                ",
"                  o.) y #.F Z n z t 0 7 6 2 > > > > 2 6 7 0 t z n Z F #.y ) ]       f.f.        ",
"        f.y.e.9.,.  l.U L A n z t 9 6 2 > : : * * : : > 2 6 9 t z n A L U l.    9.-.y.          ",
"              4.] ) h #.F C c j 0 6 2 : : * % % % % * : : 2 6 0 j c C F =.h ) ] 4.              ",
"                  W I L A n z e 7 2 : * % % % @ @ % % % * : 2 7 e z n A L I W o.                ",
"      f.h.e.9.,. .h ] F C c j 9 6 > : % % @ @ @ @ @ @ % % : > 6 9 j c C F ] h ` ,.9.-.y.        ",
"            9.,.) h +.F N z r 9 2 : * % @ @ X X X X @ @ % * : 2 9 r z N F +.h U ,.9.            ",
"                  l.%.S n z e 6 > : % % @ X X X X X X @ % % : > 6 e z n S %.h )                 ",
"          e.4.] ) h %.S n z e 6 > : % @ @ X X . . X X X @ % : > 6 e z n S %.h ) o.4.e.y.f.      ",
"      f.y.e.4.o.) h %.S n z e 6 > * % @ @ X X . . X X @ @ % : > 6 e z n S %.h ) ] 4.e.          ",
"                ) h %.S n z e 6 > : % % @ X X X X X X @ % % : > 6 e z n S %.l.                  ",
"            9.,.U h +.F N z r 9 2 : * % @ @ X X X X @ @ % * : 2 9 r z N F +.h ) ,.9.            ",
"        y.-.9.,.` h ] F C c j 9 2 > : % % @ @ @ @ @ @ % % : > 6 9 j c C F ] h  .,.9.e.h.f.      ",
"                o.W I L A n z e 6 2 : * % % % @ @ % % % * : 2 7 e z n A L I W                   ",
"              4.] ) h =.F C c j 9 6 2 : : * % % % % * : : 2 6 0 j c C F #.h ) ] 4.              ",
"          y.-.9.    l.U L A n z t 9 6 2 > : : : : : : > 2 6 9 t z n A L U l.  ,.9.e.y.f.        ",
"        f.f.      ] ) y #.F Z n z t 0 7 6 2 > > > > 2 6 7 9 t z n Z F #.y ) o.                  ",
"                9.,. .l.W %.F C n z j e 9 9 6 6 6 6 9 9 e j z n C F %.W h  .,.9.                ",
"              y.e.    ) h U *.F Z n c z j r e e e e r j z c n Z F *.I h )     9.y.f.            ",
"            f.      4.] ) l.I %.F A C n c z z z z z z c n C A F %.U l.) ] 4.        f.          ",
"                  e.9.    ) h W #.L F A C N n n n n N C A F L #.W h )   ,.9.e.                  ",
"                  y.    ,.] ) h y U #.L F F S S S S F F L =.U y l.) ]       h.y.                ",
"                f.      9.4.   .) l.h I ] +.%.%.%.%.+.] I y l.)  .  4.9.        g.              ",
"                      h.e.    ,.o.  ) W h h l.h h h h h W )   ] ,.    e.y.                      ",
"                      y.    9.9.  ,.]    .)   ) ) ) U ` o.]     9.e.      f.                    ",
"                    g.      y.    9.4.  ,.,.  ] o.  ,.,.  4.9.    y.                            ",
"                            f.    e.    9.9.  4.4.  9.9.    -.      f.                          ",
"                          f.      y.    e.    e.e.    -.    y.f.                                ",
"                                  f.    h.      y.    y.      f.                                ",
"                                        f.      f.                                              ",
"                                                                                                ",
"                                                                                                ",
"                                                                                                "
};
