/* XPM */
static char *b8faa72fa54b46b1f8b7c38b59c3036arhGQVB6BkWybvQ2Q[] = {
/* columns rows colors chars-per-pixel */
"48 48 247 2 ",
"   c None",
".  c gray22",
"X  c #393939",
"o  c #434343",
"O  c gray27",
"+  c #4B4B4B",
"@  c #4C4C4C",
"#  c gray30",
"$  c #504F51",
"%  c #515050",
"&  c #515150",
"*  c #525152",
"=  c #535153",
"-  c gray32",
";  c #535253",
":  c #545354",
">  c gray33",
",  c #565556",
"<  c #585659",
"1  c #5A575A",
"2  c #5B585B",
"3  c #5B6367",
"4  c #58676F",
"5  c #5B686F",
"6  c #5D6A71",
"7  c #636164",
"8  c #666267",
"9  c #656565",
"0  c #676368",
"q  c #69646A",
"w  c DimGray",
"e  c #696A6A",
"r  c #696B6B",
"t  c #666D71",
"y  c #676F73",
"u  c #626F76",
"i  c #6F6B71",
"p  c #686F73",
"a  c #606F78",
"s  c #6F7070",
"d  c #6B7377",
"f  c #6F7475",
"g  c #637178",
"h  c #637179",
"j  c #64737B",
"k  c #65747B",
"l  c #61737C",
"z  c #65757D",
"x  c #64767F",
"c  c #6C7478",
"v  c #68757D",
"b  c #69777F",
"n  c gray44",
"m  c #717474",
"M  c #767676",
"N  c #777777",
"B  c gray47",
"V  c gray48",
"C  c #7A7B7B",
"Z  c #7B7C7C",
"A  c #7C7C7C",
"S  c #7E7E7E",
"D  c gray50",
"F  c #CA4955",
"G  c #D65460",
"H  c #D75461",
"J  c #DF5A67",
"K  c #D86867",
"L  c #DB6A6A",
"P  c #CB896A",
"I  c #677982",
"U  c #687A84",
"Y  c #6B7C84",
"T  c #6C7E86",
"R  c #757C80",
"E  c #7D8183",
"W  c #7A8286",
"Q  c #73828B",
"!  c #73838B",
"~  c #73848E",
"^  c #75868F",
"/  c #7C868C",
"(  c #778790",
")  c #778891",
"_  c #7A8991",
"`  c #7B8A92",
"'  c #7C8A92",
"]  c #7C8B93",
"[  c #7A8B94",
"{  c #7B8D96",
"}  c #7D8C94",
"|  c #7E8E97",
" . c #7F8E97",
".. c #7D8F98",
"X. c #7E8E98",
"o. c #7E8F98",
"O. c #7F959F",
"+. c #808080",
"@. c #808182",
"#. c #838484",
"$. c #808486",
"%. c #848484",
"&. c #858687",
"*. c #878888",
"=. c #84888B",
"-. c #8B8C8C",
";. c gray55",
":. c gray56",
">. c #839097",
",. c #81919A",
"<. c #83929B",
"1. c #87939A",
"2. c #82959F",
"3. c #85959D",
"4. c #909190",
"5. c gray57",
"6. c #929292",
"7. c #939393",
"8. c gray58",
"9. c #999A9A",
"0. c #9C9D9E",
"q. c #9F9F9F",
"w. c #8698A3",
"e. c #8799A3",
"r. c #8898A1",
"t. c #8999A2",
"y. c #8A9AA2",
"u. c #8D9AA0",
"i. c #889AA4",
"p. c #899BA4",
"a. c #899BA5",
"s. c #8A9AA4",
"d. c #8B9CA4",
"f. c #8A9CA5",
"g. c #8A9CA6",
"h. c #8B9DA6",
"j. c #8B9DA7",
"k. c #8C9CA4",
"l. c #8C9CA5",
"z. c #8D9DA6",
"x. c #8C9EA7",
"c. c #889DA8",
"v. c #8B9DA8",
"b. c #8C9EA8",
"n. c #8C9FA9",
"m. c #909EA6",
"M. c #8FA1AC",
"N. c #8FA2AC",
"B. c #8FA3AD",
"V. c #8DA3AF",
"C. c #8EA4AF",
"Z. c #91A3AE",
"A. c #90A4AE",
"S. c #91A4AE",
"D. c #95A5AE",
"F. c #9BA8AF",
"G. c #94A6B0",
"H. c #95A7B1",
"J. c #93A8B3",
"K. c #94A9B3",
"L. c #96A8B2",
"P. c #94A9B4",
"I. c #95AAB5",
"U. c #94ABB7",
"Y. c #98AAB3",
"T. c #9DA9B0",
"R. c #98AAB4",
"E. c #9BABB4",
"W. c #9AACB6",
"Q. c #9AADB7",
"!. c #9BADB7",
"~. c #9CACB4",
"^. c #9EADB6",
"/. c #9DAFB9",
"(. c #9EB0BA",
"). c #9FB1BB",
"_. c #A0A0A0",
"`. c gray63",
"'. c #A5A5A5",
"]. c #A5A7A7",
"[. c #A7A6A6",
"{. c #A4AAAD",
"}. c #A7ABAC",
"|. c #A0AFB8",
" X c #AAB0B4",
".X c #A0B2BC",
"XX c #A1B3BD",
"oX c #A2B2BC",
"OX c #A3B3BC",
"+X c #A1B4BE",
"@X c #A3B5BF",
"#X c #AFB9BE",
"$X c #B1B1B1",
"%X c #B2B2B2",
"&X c #B8B7B7",
"*X c #B6B9BB",
"=X c #BBB9B9",
"-X c gray74",
";X c gray",
":X c #A3B6C0",
">X c #A3B7C2",
",X c #A6B8C2",
"<X c #A7B8C2",
"1X c #AEBBC2",
"2X c #A8BAC4",
"3X c #A8BCC6",
"4X c #A9BCC6",
"5X c #AABDC6",
"6X c #A8BDC8",
"7X c #B1BFC6",
"8X c #AFC3CE",
"9X c #B3C4CD",
"0X c #B0C4CE",
"qX c #B1C4CF",
"wX c #B2C4CE",
"eX c #B3C5CE",
"rX c #B2C5CF",
"tX c #B6C4CC",
"yX c #B8C5CD",
"uX c #B8C6CD",
"iX c #B9C6CE",
"pX c #B2C6D1",
"aX c #B5C9D3",
"sX c #B7C9D3",
"dX c #B6C9D5",
"fX c #B7CAD4",
"gX c #B8CBD5",
"hX c #B9CBD5",
"jX c #BCCDD6",
"kX c #BFCED6",
"lX c #BBCDD8",
"zX c gray79",
"xX c #CECECE",
"cX c #CFCECE",
"vX c #C2CCD2",
"bX c #C0CED6",
"nX c #CBD1D5",
"mX c #C1D3DC",
"MX c #C3D3DC",
"NX c #C2D4DD",
"BX c #C4D4DD",
"VX c #C4D4DE",
"CX c #D1E3EC",
"ZX c #D4E7F0",
"AX c #D5E7F0",
"SX c #D5E7F1",
"DX c #D5E8F2",
/* pixels */
"                                                                                                ",
"                                                                                                ",
"                                                                                                ",
"                                                                                                ",
"                                                                                                ",
"                                                                                                ",
"                                                                                                ",
"                                                                                                ",
"                                                                                                ",
"                                                                                                ",
"                                                                                                ",
"                                                                                                ",
"                                                                                                ",
"                                                                                                ",
"                                                                                                ",
"                                                  G J L                                         ",
"                                                  F G K P                                       ",
"                                                                                                ",
"                                                                                                ",
"                                                                                                ",
"                                        aX9X9X9XdXlXmXvXnXDXAXAXAXAX                            ",
"                                        S.3.<.3.OX<X).OX<XtXyXyXyXbXCX                          ",
"                              `         U ^ } ' r.+X!.!.!.k.|.OXm.1XjX                          ",
"                            Y j ^.9X<X+XG.N.r.' r.+X!./.X.4 G.X.4 R.7X                          ",
"                            I a D.).Z.N.e.2.X.` r.+X!./.X.z R.X.z K.OX                          ",
"                              T         l l z ~ Y.:X!.!.!.!.!.!.!.!.!.                          ",
"                                        i.e.e.v.:XhXBXmXmXmXmXmXmXmXBX                          ",
"                                    C.N.J.I.I.K.I.6XaX9X9X9X9X9X9X9XjX                          ",
"                                  v.{ [ <.r.r.r.k.I.pXhXdXdXdXdXdXdXdXNX                        ",
"                                O.) 5 u b k Q } r.S.8X4X2X2X4X4X4X4X4X4X9X                      ",
"                                } ( 6 h b h Q } h.N.^.F.F.!.n.h.k.k.k.i.!.                      ",
"                              =X=.3 y y y p d c W #X*X&X X1.&.-.V Z Z 5.#.i.                    ",
"                            `.5.+ o < = = : = , &.].].{.u.m -XzX=.s 9.cX%XE i.                  ",
"                          q.`.S X $ 0 q i 7 @ S q.].{.k.w n -XzX=.s 9.cX%XN f I.                ",
"                          5.8.N X = < 2 8 , @ V :.5.q.T.R w #.:.V Z Z 5.V w /                   ",
"                            S 9 X O O + = = @ w V V @.@.>.n.h.h.h.h.h.i.h.n.                    ",
"                                                                                                ",
"                                                                                                ",
"                                                                                                ",
"                                                                                                ",
"                                                                                                ",
"                                                                                                ",
"                                                                                                ",
"                                                                                                ",
"                                                                                                ",
"                                                                                                ",
"                                                                                                ",
"                                                                                                "
};
